/* XPM */
static const char *xpm_unchecked_box[] = {
/* columns rows colors chars-per-pixel */
"16 16 6 1 ",
"  c None",
". c #020202",
"X c #030303",
"o c #040404",
"O c #050505",
"+ c #060606",
/* pixels */
"o..............o",
".              .",
".              .",
".              .",
".              .",
".              .",
".              .",
".              o",
"o              o",
"o              o",
".              o",
".              .",
".              .",
".              o",
".              .",
"o..o.o...o..o..o"
};
